<svg width="150" height="45" viewBox="0 0 150 45" fill="none" xmlns="http://www.w3.org/2000/svg">
<path d="M138.055 0.00014625H11.9518C11.4921 0.00014625 11.038 0.00014625 10.5796 0.00239624C10.1958 0.00464624 9.81509 0.0111825 9.42764 0.0166837C8.58593 0.0255732 7.74619 0.0920317 6.91573 0.215482C6.08644 0.341619 5.28313 0.579425 4.53296 0.920854C3.78372 1.26517 3.09911 1.71258 2.50397 2.24684C1.90571 2.7796 1.40702 3.3954 1.02706 4.07056C0.646059 4.74438 0.38187 5.46643 0.243619 6.21179C0.104055 6.95621 0.028954 7.70921 0.0189907 8.46403C0.0073581 8.80896 0.00612966 9.15503 0 9.5V35.5035C0.00612966 35.8528 0.0073581 36.1912 0.0189907 36.5406C0.0289571 37.2954 0.104058 38.0483 0.243619 38.7927C0.381488 39.5385 0.645693 40.261 1.02706 40.935C1.40685 41.608 1.90561 42.2213 2.50397 42.7511C3.09685 43.2878 3.7819 43.7355 4.53296 44.0772C5.28312 44.4195 6.08635 44.6587 6.91573 44.7868C7.74633 44.9093 8.58598 44.9758 9.42764 44.9857C9.81509 44.9934 10.1958 44.9977 10.5796 44.9977C11.038 45 11.4922 45 11.9518 45H138.055C138.505 45 138.963 45 139.414 44.9977C139.796 44.9977 140.187 44.9934 140.569 44.9857C141.409 44.9763 142.247 44.9098 143.076 44.7868C143.908 44.6578 144.715 44.4187 145.468 44.0772C146.219 43.7353 146.903 43.2876 147.495 42.7511C148.092 42.2193 148.592 41.6064 148.977 40.935C149.355 40.2605 149.617 39.5381 149.753 38.7927C149.892 38.0482 149.97 37.2954 149.985 36.5406C149.99 36.1912 149.99 35.8528 149.99 35.5035C150 35.0947 150 34.6883 150 34.2729V10.7283C150 10.3163 150 9.90758 149.99 9.5C149.99 9.15503 149.99 8.80896 149.985 8.46399C149.97 7.7091 149.892 6.95626 149.753 6.21175C149.616 5.46682 149.355 4.74482 148.977 4.07052C148.203 2.71723 146.976 1.61567 145.468 0.920753C144.715 0.580158 143.908 0.342416 143.076 0.215381C142.248 0.0913866 141.409 0.0249049 140.569 0.0165262C140.187 0.0110362 139.796 0.00444374 139.414 0.00224999C138.963 0 138.505 0 138.055 0V0.00014625Z" fill="#A6A6A6"/>
<path d="M10.4977 43.9978C10.1153 43.9978 9.74207 43.9934 9.36263 43.9857C8.57659 43.9766 7.79239 43.9153 7.01645 43.8024C6.29293 43.6908 5.59203 43.4832 4.93687 43.1865C4.28773 42.8922 3.69565 42.5063 3.18333 42.0437C2.66359 41.5865 2.23089 41.0562 1.90236 40.4738C1.57022 39.8877 1.34035 39.2595 1.22078 38.611C1.09165 37.9141 1.02178 37.2095 1.01178 36.5032C1.00383 36.2661 0.993408 35.4768 0.993408 35.4768V9.50888C0.993408 9.50888 1.0045 8.73165 1.01185 8.5033C1.02142 7.79812 1.09088 7.09461 1.21962 6.39887C1.33942 5.74858 1.56946 5.11851 1.90179 4.53046C2.2291 3.94851 2.65941 3.41783 3.17601 2.95899C3.69204 2.49578 4.28601 2.10794 4.93626 1.80961C5.58991 1.51383 6.28948 1.30771 7.01154 1.19815C7.79003 1.08413 8.57695 1.02248 9.36572 1.01373L10.4983 1H139.496L140.642 1.01428C141.423 1.02259 142.203 1.08369 142.974 1.19705C143.704 1.30798 144.411 1.51554 145.072 1.8129C146.374 2.41413 147.434 3.36534 148.103 4.5332C148.43 5.11719 148.657 5.74213 148.775 6.38679C148.905 7.08825 148.978 7.79729 148.993 8.50825C148.997 8.8266 148.997 9.16856 148.997 9.50888C149.007 9.93043 149.007 10.3317 149.007 10.7362V34.2626C149.007 34.671 149.007 35.0695 148.997 35.4713C148.997 35.8368 148.997 36.1717 148.992 36.5164C148.977 37.2146 148.906 37.911 148.777 38.5999C148.66 39.2531 148.432 39.8863 148.1 40.4772C147.769 41.0532 147.338 41.5789 146.825 42.0349C146.312 42.5001 145.719 42.8882 145.068 43.1843C144.409 43.4833 143.703 43.6917 142.974 43.8024C142.199 43.9159 141.414 43.9772 140.628 43.9857C140.261 43.9934 139.876 43.9978 139.502 43.9978L138.141 44L10.4977 43.9978Z" fill="black"/>
<path d="M34.685 22.605C34.6972 21.6756 34.949 20.7643 35.4169 19.956C35.8848 19.1476 36.5536 18.4684 37.3611 17.9816C36.8481 17.2632 36.1714 16.672 35.3846 16.255C34.5978 15.8379 33.7226 15.6065 32.8287 15.5791C30.9217 15.3828 29.0729 16.6979 28.1012 16.6979C27.1106 16.6979 25.6144 15.5985 24.0033 15.631C22.9611 15.6641 21.9455 15.9612 21.0553 16.4935C20.1651 17.0258 19.4307 17.7752 18.9237 18.6685C16.7274 22.397 18.3656 27.8766 20.4695 30.8904C21.5221 32.3662 22.7523 34.0147 24.362 33.9563C25.9372 33.8922 26.5255 32.9714 28.4269 32.9714C30.3106 32.9714 30.8626 33.9563 32.5049 33.9191C34.1952 33.8922 35.2601 32.4368 36.2758 30.947C37.0321 29.8954 37.614 28.7333 38.0001 27.5035C37.0182 27.0962 36.1801 26.4146 35.5906 25.5435C35.0011 24.6724 34.6861 23.6504 34.685 22.605Z" fill="white"/>
<path d="M31.5828 13.5968C32.5043 12.512 32.9584 11.1177 32.8484 9.70996C31.4404 9.85496 30.1399 10.5148 29.2058 11.5579C28.7491 12.0676 28.3994 12.6604 28.1765 13.3027C27.9536 13.9449 27.8621 14.6239 27.907 15.3009C28.6112 15.308 29.3079 15.1583 29.9447 14.8631C30.5814 14.568 31.1415 14.135 31.5828 13.5968Z" fill="white"/>
<path d="M54.5953 30.22H49.2199L47.929 33.9574H45.6522L50.7437 20.1299H53.1092L58.2007 33.9574H55.8851L54.5953 30.22ZM49.7766 28.4953H54.0375L51.937 22.4298H51.8783L49.7766 28.4953Z" fill="white"/>
<path d="M69.1975 28.9176C69.1975 32.0504 67.4874 34.0632 64.9067 34.0632C64.253 34.0967 63.6028 33.9491 63.0307 33.6372C62.4586 33.3252 61.9876 32.8616 61.6717 32.2994H61.6229V37.2928H59.5125V23.8764H61.5553V25.5532H61.5941C61.9245 24.9937 62.4034 24.5325 62.9799 24.2186C63.5564 23.9048 64.2089 23.7501 64.8679 23.7709C67.4774 23.7709 69.1975 25.7935 69.1975 28.9176ZM67.0282 28.9176C67.0282 26.8766 65.9525 25.5347 64.3112 25.5347C62.6987 25.5347 61.6141 26.9048 61.6141 28.9176C61.6141 30.9489 62.6987 32.3092 64.3112 32.3092C65.9525 32.3092 67.0282 30.9772 67.0282 28.9176Z" fill="white"/>
<path d="M80.5136 28.9176C80.5136 32.0504 78.8035 34.0632 76.2229 34.0632C75.5691 34.0967 74.919 33.9491 74.3469 33.6371C73.7748 33.3252 73.3038 32.8616 72.9879 32.2994H72.9391V37.2928H70.8286V23.8764H72.8714V25.5532H72.9102C73.2406 24.9937 73.7196 24.5325 74.296 24.2186C74.8725 23.9048 75.525 23.7501 76.184 23.7709C78.7936 23.7709 80.5136 25.7935 80.5136 28.9176ZM78.3444 28.9176C78.3444 26.8765 77.2687 25.5347 75.6273 25.5347C74.0148 25.5347 72.9302 26.9048 72.9302 28.9176C72.9302 30.9489 74.0148 32.3092 75.6273 32.3092C77.2687 32.3092 78.3444 30.9771 78.3444 28.9176H78.3444Z" fill="white"/>
<path d="M87.9925 30.1048C88.1489 31.476 89.5075 32.3763 91.3639 32.3763C93.1428 32.3763 94.4226 31.476 94.4226 30.2396C94.4226 29.1663 93.6507 28.5237 91.8231 28.0832L89.9954 27.6515C87.4059 27.0382 86.2037 25.8508 86.2037 23.9239C86.2037 21.5381 88.3241 19.8994 91.3351 19.8994C94.315 19.8994 96.3578 21.5381 96.4266 23.9239H94.2961C94.1686 22.544 93.0052 21.711 91.3051 21.711C89.605 21.711 88.4417 22.5538 88.4417 23.7804C88.4417 24.758 89.1847 25.3332 91.0024 25.7736L92.5561 26.1476C95.4495 26.8186 96.6517 27.9582 96.6517 29.9807C96.6517 32.5677 94.5501 34.1879 91.2075 34.1879C88.0801 34.1879 85.9686 32.6057 85.8322 30.1047L87.9925 30.1048Z" fill="white"/>
<path d="M101.206 21.4902V23.876H103.162V25.5147H101.206V31.0725C101.206 31.9359 101.598 32.3382 102.457 32.3382C102.69 32.3342 102.921 32.3183 103.152 32.2903V33.9193C102.765 33.9901 102.372 34.0221 101.979 34.015C99.8978 34.015 99.086 33.2483 99.086 31.2932V25.5147H97.5911V23.876H99.086V21.4902H101.206Z" fill="white"/>
<path d="M104.293 28.9176C104.293 25.7457 106.199 23.7524 109.17 23.7524C112.151 23.7524 114.047 25.7456 114.047 28.9176C114.047 32.0983 112.161 34.0828 109.17 34.0828C106.18 34.0828 104.293 32.0983 104.293 28.9176ZM111.897 28.9176C111.897 26.7417 110.88 25.4575 109.17 25.4575C107.46 25.4575 106.444 26.7515 106.444 28.9176C106.444 31.1022 107.46 32.3767 109.17 32.3767C110.88 32.3767 111.897 31.1022 111.897 28.9176H111.897Z" fill="white"/>
<path d="M115.788 23.8763H117.8V25.5922H117.849C117.985 25.0563 118.306 24.5827 118.756 24.251C119.206 23.9193 119.76 23.7497 120.322 23.7708C120.566 23.77 120.808 23.7959 121.045 23.848V25.7836C120.738 25.6916 120.418 25.6494 120.097 25.6585C119.791 25.6463 119.485 25.6994 119.201 25.8139C118.918 25.9285 118.662 26.1019 118.453 26.3222C118.245 26.5426 118.087 26.8047 117.991 27.0905C117.895 27.3763 117.863 27.679 117.898 27.978V33.9576H115.788L115.788 23.8763Z" fill="white"/>
<path d="M130.776 30.9967C130.492 32.8268 128.675 34.0828 126.349 34.0828C123.358 34.0828 121.501 32.1179 121.501 28.9655C121.501 25.8033 123.368 23.7524 126.26 23.7524C129.105 23.7524 130.894 25.6684 130.894 28.7252V29.4341H123.632V29.5592C123.598 29.9302 123.646 30.304 123.771 30.6557C123.896 31.0074 124.096 31.3289 124.358 31.599C124.619 31.8691 124.936 32.0815 125.288 32.2221C125.64 32.3628 126.018 32.4284 126.398 32.4147C126.896 32.4605 127.397 32.3473 127.825 32.0918C128.253 31.8363 128.585 31.4522 128.772 30.9967L130.776 30.9967ZM123.642 27.9879H128.782C128.801 27.6543 128.749 27.3204 128.631 27.0073C128.512 26.6942 128.328 26.4085 128.091 26.1683C127.855 25.928 127.57 25.7384 127.255 25.6112C126.939 25.484 126.601 25.422 126.26 25.4292C125.917 25.4272 125.576 25.492 125.258 25.6197C124.94 25.7475 124.651 25.9357 124.407 26.1736C124.164 26.4115 123.971 26.6943 123.84 27.0057C123.708 27.3171 123.641 27.6509 123.642 27.9879V27.9879Z" fill="white"/>
<path d="M49.5128 9.72238C49.9552 9.69125 50.3992 9.75679 50.8127 9.91428C51.2262 10.0718 51.5989 10.3173 51.9039 10.6331C52.2089 10.9489 52.4386 11.3272 52.5765 11.7406C52.7144 12.154 52.757 12.5922 52.7012 13.0237C52.7012 15.1464 51.5312 16.3665 49.5128 16.3665H47.0652V9.72238H49.5128ZM48.1176 15.4269H49.3952C49.7114 15.4454 50.0278 15.3946 50.3214 15.2781C50.615 15.1616 50.8784 14.9824 51.0925 14.7535C51.3065 14.5246 51.4658 14.2518 51.5588 13.9549C51.6518 13.658 51.676 13.3445 51.6299 13.0373C51.6727 12.7313 51.6459 12.4197 51.5515 12.125C51.4572 11.8303 51.2975 11.5597 51.0839 11.3327C50.8703 11.1056 50.6082 10.9276 50.3162 10.8116C50.0243 10.6955 49.7098 10.6442 49.3952 10.6613H48.1176V15.4269Z" fill="white"/>
<path d="M53.8896 13.8569C53.8574 13.5274 53.8959 13.195 54.0024 12.8809C54.109 12.5668 54.2813 12.278 54.5084 12.0331C54.7355 11.7881 55.0122 11.5924 55.321 11.4585C55.6297 11.3246 55.9635 11.2554 56.3011 11.2554C56.6387 11.2554 56.9726 11.3246 57.2813 11.4585C57.59 11.5924 57.8668 11.7881 58.0938 12.0331C58.3209 12.278 58.4932 12.5668 58.5998 12.8809C58.7064 13.195 58.7448 13.5274 58.7127 13.8569C58.7454 14.1868 58.7074 14.5197 58.6012 14.8343C58.4949 15.1489 58.3226 15.4382 58.0955 15.6836C57.8684 15.9291 57.5914 16.1252 57.2824 16.2594C56.9734 16.3936 56.6391 16.463 56.3011 16.463C55.9631 16.463 55.6289 16.3936 55.3199 16.2594C55.0108 16.1252 54.7339 15.9291 54.5067 15.6836C54.2796 15.4382 54.1074 15.1489 54.0011 14.8343C53.8948 14.5197 53.8568 14.1868 53.8896 13.8569ZM57.6746 13.8569C57.6746 12.7701 57.1767 12.1345 56.3028 12.1345C55.4256 12.1345 54.9321 12.7701 54.9321 13.857C54.9321 14.9525 55.4256 15.5832 56.3028 15.5832C57.1767 15.5832 57.6746 14.9482 57.6746 13.8569H57.6746Z" fill="white"/>
<path d="M65.1242 16.3661H64.0773L63.0204 12.6732H62.9406L61.8881 16.3661H60.8512L59.4417 11.3521H60.4653L61.3813 15.1781H61.4567L62.5081 11.3521H63.4762L64.5276 15.1781H64.6074L65.519 11.3521H66.5282L65.1242 16.3661Z" fill="white"/>
<path d="M67.7136 11.3522H68.6851V12.1487H68.7605C68.8885 11.8627 69.1042 11.6228 69.3778 11.4627C69.6513 11.3026 69.969 11.2301 70.2865 11.2554C70.5353 11.2371 70.7852 11.2739 71.0175 11.3631C71.2499 11.4522 71.4588 11.5915 71.6288 11.7706C71.7987 11.9497 71.9255 12.1641 71.9995 12.3977C72.0735 12.6313 72.093 12.8783 72.0565 13.1203V16.3662H71.0473V13.3688C71.0473 12.563 70.6902 12.1623 69.9438 12.1623C69.7749 12.1546 69.6063 12.1828 69.4495 12.245C69.2927 12.3071 69.1515 12.4018 69.0355 12.5225C68.9195 12.6432 68.8316 12.787 68.7776 12.9442C68.7236 13.1013 68.7049 13.2681 68.7228 13.433V16.3662H67.7136L67.7136 11.3522Z" fill="white"/>
<path d="M73.6647 9.39502H74.6739V16.3664H73.6647V9.39502Z" fill="white"/>
<path d="M76.0771 13.857C76.0449 13.5275 76.0834 13.195 76.19 12.8809C76.2966 12.5668 76.4689 12.278 76.696 12.0331C76.9231 11.7881 77.1999 11.5924 77.5086 11.4585C77.8174 11.3246 78.1513 11.2554 78.4889 11.2554C78.8265 11.2554 79.1604 11.3246 79.4691 11.4585C79.7779 11.5924 80.0546 11.7881 80.2817 12.0331C80.5088 12.278 80.6812 12.5668 80.7878 12.8809C80.8944 13.195 80.9328 13.5275 80.9007 13.857C80.9334 14.1869 80.8954 14.5198 80.7891 14.8344C80.6828 15.149 80.5105 15.4383 80.2833 15.6837C80.0562 15.9291 79.7792 16.1253 79.4702 16.2595C79.1611 16.3937 78.8269 16.463 78.4889 16.463C78.1509 16.463 77.8166 16.3937 77.5076 16.2595C77.1985 16.1253 76.9215 15.9291 76.6944 15.6837C76.4673 15.4383 76.295 15.149 76.1887 14.8344C76.0824 14.5198 76.0443 14.1869 76.0771 13.857ZM79.8621 13.857C79.8621 12.7702 79.3641 12.1346 78.4903 12.1346C77.613 12.1346 77.1196 12.7702 77.1196 13.857C77.1196 14.9526 77.6131 15.5833 78.4903 15.5833C79.3642 15.5833 79.8621 14.9482 79.8621 13.857H79.8621Z" fill="white"/>
<path d="M81.9634 14.9482C81.9634 14.0456 82.6487 13.5253 83.8653 13.4514L85.2505 13.3731V12.9403C85.2505 12.4107 84.8934 12.1117 84.2036 12.1117C83.6402 12.1117 83.2498 12.3145 83.1378 12.669H82.1608C82.2639 11.8078 83.0901 11.2554 84.2502 11.2554C85.5322 11.2554 86.2553 11.8812 86.2553 12.9403V16.3662H85.2838V15.6615H85.2039C85.0418 15.9143 84.8143 16.1204 84.5444 16.2587C84.2746 16.397 83.9721 16.4626 83.6679 16.4488C83.4533 16.4707 83.2363 16.4482 83.031 16.3829C82.8257 16.3175 82.6367 16.2107 82.4761 16.0693C82.3155 15.9279 82.1869 15.7551 82.0986 15.562C82.0103 15.3689 81.9642 15.1598 81.9634 14.9482ZM85.2505 14.5198V14.1006L84.0017 14.1789C83.2975 14.2251 82.9781 14.4599 82.9781 14.902C82.9781 15.3532 83.3774 15.6159 83.9264 15.6159C84.0872 15.6318 84.2497 15.6159 84.4042 15.569C84.5586 15.5222 84.7019 15.4453 84.8254 15.343C84.9489 15.2408 85.0502 15.1152 85.1233 14.9738C85.1963 14.8323 85.2396 14.6779 85.2505 14.5198Z" fill="white"/>
<path d="M87.5809 13.8572C87.5809 12.2729 88.4116 11.2692 89.7036 11.2692C90.0232 11.2547 90.3403 11.3298 90.618 11.4856C90.8957 11.6413 91.1224 11.8714 91.2717 12.1488H91.3471V9.39502H92.3563V16.3664H91.3893V15.5742H91.3094C91.1486 15.8498 90.914 16.077 90.6309 16.2312C90.3479 16.3854 90.0272 16.4607 89.7036 16.449C88.4027 16.4491 87.5809 15.4454 87.5809 13.8572ZM88.6234 13.8572C88.6234 14.9207 89.1347 15.5606 89.9897 15.5606C90.8403 15.5606 91.366 14.9115 91.366 13.8616C91.366 12.8166 90.8348 12.1581 89.9897 12.1581C89.1402 12.1581 88.6234 12.8024 88.6234 13.8572H88.6234Z" fill="white"/>
<path d="M96.5315 13.8569C96.4994 13.5274 96.5378 13.195 96.6444 12.8809C96.751 12.5668 96.9233 12.278 97.1504 12.0331C97.3774 11.7881 97.6542 11.5924 97.9629 11.4585C98.2716 11.3246 98.6055 11.2554 98.9431 11.2554C99.2807 11.2554 99.6145 11.3246 99.9233 11.4585C100.232 11.5924 100.509 11.7881 100.736 12.0331C100.963 12.278 101.135 12.5668 101.242 12.8809C101.348 13.195 101.387 13.5274 101.355 13.8569C101.387 14.1868 101.349 14.5197 101.243 14.8343C101.137 15.1489 100.965 15.4382 100.737 15.6836C100.51 15.9291 100.233 16.1252 99.9244 16.2594C99.6153 16.3936 99.2811 16.463 98.9431 16.463C98.6051 16.463 98.2708 16.3936 97.9618 16.2594C97.6528 16.1252 97.3758 15.9291 97.1487 15.6836C96.9216 15.4382 96.7493 15.1489 96.6431 14.8343C96.5368 14.5197 96.4988 14.1868 96.5315 13.8569ZM100.317 13.8569C100.317 12.7701 99.8186 12.1345 98.9448 12.1345C98.0675 12.1345 97.5741 12.7701 97.5741 13.857C97.5741 14.9525 98.0676 15.5832 98.9448 15.5832C99.8187 15.5832 100.317 14.9482 100.317 13.8569Z" fill="white"/>
<path d="M102.709 11.3522H103.681V12.1487H103.756C103.884 11.8627 104.1 11.6228 104.374 11.4627C104.647 11.3026 104.965 11.2301 105.282 11.2554C105.531 11.2371 105.781 11.2739 106.013 11.3631C106.246 11.4522 106.455 11.5915 106.624 11.7706C106.794 11.9497 106.921 12.1641 106.995 12.3977C107.069 12.6313 107.089 12.8783 107.052 13.1203V16.3662H106.043V13.3688C106.043 12.563 105.686 12.1623 104.94 12.1623C104.771 12.1546 104.602 12.1828 104.445 12.245C104.288 12.3071 104.147 12.4018 104.031 12.5225C103.915 12.6432 103.827 12.787 103.773 12.9442C103.719 13.1013 103.701 13.2681 103.719 13.433V16.3662H102.709V11.3522Z" fill="white"/>
<path d="M112.754 10.104V11.3752H113.862V12.2087H112.754V14.7869C112.754 15.3121 112.975 15.5421 113.478 15.5421C113.606 15.5417 113.735 15.5341 113.862 15.5193V16.3435C113.681 16.3753 113.498 16.3922 113.313 16.3941C112.191 16.3941 111.744 16.007 111.744 15.0403V12.2086H110.932V11.3751H111.744V10.104H112.754Z" fill="white"/>
<path d="M115.241 9.39502H116.241V12.1581H116.321C116.455 11.8694 116.677 11.6282 116.956 11.4675C117.235 11.3067 117.558 11.2343 117.88 11.2599C118.128 11.2467 118.375 11.2872 118.605 11.3786C118.835 11.4699 119.041 11.6099 119.209 11.7884C119.378 11.967 119.504 12.1797 119.578 12.4115C119.653 12.6432 119.675 12.8883 119.642 13.1292V16.3664H118.631V13.3733C118.631 12.5724 118.251 12.1668 117.538 12.1668C117.364 12.1529 117.19 12.1762 117.027 12.2353C116.863 12.2944 116.715 12.3877 116.593 12.5088C116.47 12.6299 116.376 12.7758 116.317 12.9363C116.258 13.0968 116.235 13.268 116.25 13.438V16.3664H115.241L115.241 9.39502Z" fill="white"/>
<path d="M125.526 15.0124C125.389 15.4707 125.092 15.8671 124.687 16.1323C124.282 16.3974 123.794 16.5145 123.31 16.463C122.973 16.4718 122.639 16.4085 122.329 16.2776C122.02 16.1467 121.743 15.9514 121.518 15.7052C121.293 15.4589 121.126 15.1677 121.028 14.8517C120.929 14.5356 120.902 14.2024 120.948 13.875C120.903 13.5467 120.931 13.2127 121.029 12.8957C121.127 12.5787 121.294 12.2861 121.517 12.0377C121.741 11.7893 122.016 11.5909 122.325 11.456C122.633 11.321 122.968 11.2526 123.306 11.2555C124.729 11.2555 125.587 12.2086 125.587 13.7831V14.1284H121.976V14.1838C121.96 14.3679 121.984 14.5531 122.045 14.7276C122.107 14.9021 122.205 15.0622 122.333 15.1974C122.461 15.3326 122.617 15.4401 122.79 15.5129C122.963 15.5858 123.15 15.6223 123.338 15.6203C123.579 15.6487 123.824 15.6061 124.041 15.4978C124.257 15.3896 124.436 15.2206 124.555 15.0124L125.526 15.0124ZM121.976 13.3966H124.559C124.572 13.2283 124.548 13.0592 124.491 12.9003C124.433 12.7414 124.342 12.5961 124.223 12.4738C124.104 12.3515 123.961 12.2548 123.802 12.19C123.643 12.1253 123.472 12.0938 123.3 12.0977C123.126 12.0955 122.952 12.1276 122.791 12.1922C122.629 12.2567 122.482 12.3523 122.359 12.4733C122.235 12.5944 122.138 12.7384 122.072 12.897C122.007 13.0556 121.974 13.2254 121.976 13.3966H121.976Z" fill="white"/>
</svg>
